<mxfile host="app.diagrams.net" modified="2022-04-26T15:51:49.232Z" agent="5.0 (Macintosh; Intel Mac OS X 10_15_7) AppleWebKit/537.36 (KHTML, like Gecko) Chrome/100.0.4896.127 Safari/537.36" etag="Up6r6T1KlNQbcYCUTCq9" version="17.4.6" type="github">
  <diagram id="BKTVI9OD8oNNUzKUMocG" name="第 1 页">
    <mxGraphModel dx="1426" dy="794" grid="0" gridSize="10" guides="1" tooltips="1" connect="1" arrows="1" fold="1" page="1" pageScale="1" pageWidth="827" pageHeight="1169" math="0" shadow="0">
      <root>
        <mxCell id="0" />
        <mxCell id="1" parent="0" />
        <mxCell id="Qi2p6z6g4xfFtqPoYyuL-1" value="k8s" style="rounded=0;whiteSpace=wrap;html=1;align=left;verticalAlign=top;" vertex="1" parent="1">
          <mxGeometry x="69" y="26" width="470" height="300" as="geometry" />
        </mxCell>
        <mxCell id="Qi2p6z6g4xfFtqPoYyuL-2" value="httpbin" style="ellipse;shape=cloud;whiteSpace=wrap;html=1;" vertex="1" parent="1">
          <mxGeometry x="649" y="137" width="120" height="80" as="geometry" />
        </mxCell>
        <mxCell id="Qi2p6z6g4xfFtqPoYyuL-3" value="Pod" style="rounded=0;whiteSpace=wrap;html=1;align=left;verticalAlign=top;" vertex="1" parent="1">
          <mxGeometry x="99" y="96" width="240" height="170" as="geometry" />
        </mxCell>
        <mxCell id="Qi2p6z6g4xfFtqPoYyuL-6" style="edgeStyle=orthogonalEdgeStyle;rounded=0;orthogonalLoop=1;jettySize=auto;html=1;entryX=0;entryY=0.5;entryDx=0;entryDy=0;" edge="1" parent="1" source="Qi2p6z6g4xfFtqPoYyuL-4" target="Qi2p6z6g4xfFtqPoYyuL-5">
          <mxGeometry relative="1" as="geometry" />
        </mxCell>
        <mxCell id="Qi2p6z6g4xfFtqPoYyuL-4" value="sleep" style="rounded=0;whiteSpace=wrap;html=1;" vertex="1" parent="1">
          <mxGeometry x="109" y="131" width="90" height="100" as="geometry" />
        </mxCell>
        <mxCell id="Qi2p6z6g4xfFtqPoYyuL-5" value="sidecar&lt;br&gt;envoy" style="rounded=0;whiteSpace=wrap;html=1;" vertex="1" parent="1">
          <mxGeometry x="259" y="106" width="70" height="150" as="geometry" />
        </mxCell>
        <mxCell id="Qi2p6z6g4xfFtqPoYyuL-15" value="Pod" style="rounded=0;whiteSpace=wrap;html=1;verticalAlign=top;align=left;" vertex="1" parent="1">
          <mxGeometry x="379" y="96" width="140" height="170" as="geometry" />
        </mxCell>
        <mxCell id="Qi2p6z6g4xfFtqPoYyuL-18" style="edgeStyle=orthogonalEdgeStyle;rounded=0;orthogonalLoop=1;jettySize=auto;html=1;entryX=0.16;entryY=0.55;entryDx=0;entryDy=0;entryPerimeter=0;" edge="1" parent="1" source="Qi2p6z6g4xfFtqPoYyuL-16" target="Qi2p6z6g4xfFtqPoYyuL-2">
          <mxGeometry relative="1" as="geometry" />
        </mxCell>
        <mxCell id="Qi2p6z6g4xfFtqPoYyuL-16" value="egressgateway" style="rounded=0;whiteSpace=wrap;html=1;" vertex="1" parent="1">
          <mxGeometry x="389" y="151" width="120" height="60" as="geometry" />
        </mxCell>
        <mxCell id="Qi2p6z6g4xfFtqPoYyuL-17" style="edgeStyle=orthogonalEdgeStyle;rounded=0;orthogonalLoop=1;jettySize=auto;html=1;entryX=0;entryY=0.5;entryDx=0;entryDy=0;" edge="1" parent="1" source="Qi2p6z6g4xfFtqPoYyuL-5" target="Qi2p6z6g4xfFtqPoYyuL-16">
          <mxGeometry relative="1" as="geometry" />
        </mxCell>
        <mxCell id="Qi2p6z6g4xfFtqPoYyuL-19" value="k8s" style="rounded=0;whiteSpace=wrap;html=1;align=left;verticalAlign=top;" vertex="1" parent="1">
          <mxGeometry x="69" y="363" width="470" height="300" as="geometry" />
        </mxCell>
        <mxCell id="Qi2p6z6g4xfFtqPoYyuL-20" value="httpbin" style="ellipse;shape=cloud;whiteSpace=wrap;html=1;" vertex="1" parent="1">
          <mxGeometry x="649" y="474" width="120" height="80" as="geometry" />
        </mxCell>
        <mxCell id="Qi2p6z6g4xfFtqPoYyuL-21" value="Pod" style="rounded=0;whiteSpace=wrap;html=1;align=left;verticalAlign=top;" vertex="1" parent="1">
          <mxGeometry x="99" y="433" width="240" height="170" as="geometry" />
        </mxCell>
        <mxCell id="Qi2p6z6g4xfFtqPoYyuL-22" style="edgeStyle=orthogonalEdgeStyle;rounded=0;orthogonalLoop=1;jettySize=auto;html=1;entryX=0;entryY=0.5;entryDx=0;entryDy=0;" edge="1" parent="1" source="Qi2p6z6g4xfFtqPoYyuL-23" target="Qi2p6z6g4xfFtqPoYyuL-24">
          <mxGeometry relative="1" as="geometry" />
        </mxCell>
        <mxCell id="Qi2p6z6g4xfFtqPoYyuL-23" value="sleep" style="rounded=0;whiteSpace=wrap;html=1;" vertex="1" parent="1">
          <mxGeometry x="109" y="468" width="90" height="100" as="geometry" />
        </mxCell>
        <mxCell id="Qi2p6z6g4xfFtqPoYyuL-24" value="sidecar&lt;br&gt;envoy" style="rounded=0;whiteSpace=wrap;html=1;" vertex="1" parent="1">
          <mxGeometry x="259" y="443" width="70" height="150" as="geometry" />
        </mxCell>
        <mxCell id="Qi2p6z6g4xfFtqPoYyuL-25" value="Pod" style="rounded=0;whiteSpace=wrap;html=1;verticalAlign=top;align=left;" vertex="1" parent="1">
          <mxGeometry x="379" y="433" width="140" height="170" as="geometry" />
        </mxCell>
        <mxCell id="Qi2p6z6g4xfFtqPoYyuL-54" style="edgeStyle=orthogonalEdgeStyle;curved=1;rounded=0;orthogonalLoop=1;jettySize=auto;html=1;entryX=0.16;entryY=0.55;entryDx=0;entryDy=0;entryPerimeter=0;dashed=1;" edge="1" parent="1" source="Qi2p6z6g4xfFtqPoYyuL-27" target="Qi2p6z6g4xfFtqPoYyuL-20">
          <mxGeometry relative="1" as="geometry" />
        </mxCell>
        <mxCell id="Qi2p6z6g4xfFtqPoYyuL-58" value="&lt;font color=&quot;#ff0000&quot; size=&quot;1&quot;&gt;&lt;b style=&quot;font-size: 23px&quot;&gt;X&lt;/b&gt;&lt;/font&gt;" style="edgeLabel;html=1;align=center;verticalAlign=middle;resizable=0;points=[];" vertex="1" connectable="0" parent="Qi2p6z6g4xfFtqPoYyuL-54">
          <mxGeometry x="0.005" y="2" relative="1" as="geometry">
            <mxPoint y="1" as="offset" />
          </mxGeometry>
        </mxCell>
        <mxCell id="Qi2p6z6g4xfFtqPoYyuL-27" value="egressgateway" style="rounded=0;whiteSpace=wrap;html=1;" vertex="1" parent="1">
          <mxGeometry x="389" y="488" width="120" height="60" as="geometry" />
        </mxCell>
        <mxCell id="Qi2p6z6g4xfFtqPoYyuL-28" style="edgeStyle=orthogonalEdgeStyle;rounded=0;orthogonalLoop=1;jettySize=auto;html=1;entryX=0;entryY=0.5;entryDx=0;entryDy=0;" edge="1" parent="1" source="Qi2p6z6g4xfFtqPoYyuL-24" target="Qi2p6z6g4xfFtqPoYyuL-27">
          <mxGeometry relative="1" as="geometry" />
        </mxCell>
        <mxCell id="Qi2p6z6g4xfFtqPoYyuL-29" value="k8s" style="rounded=0;whiteSpace=wrap;html=1;align=left;verticalAlign=top;" vertex="1" parent="1">
          <mxGeometry x="69" y="688" width="470" height="380" as="geometry" />
        </mxCell>
        <mxCell id="Qi2p6z6g4xfFtqPoYyuL-30" value="httpbin" style="ellipse;shape=cloud;whiteSpace=wrap;html=1;" vertex="1" parent="1">
          <mxGeometry x="649" y="799" width="120" height="80" as="geometry" />
        </mxCell>
        <mxCell id="Qi2p6z6g4xfFtqPoYyuL-31" value="Pod" style="rounded=0;whiteSpace=wrap;html=1;align=left;verticalAlign=top;" vertex="1" parent="1">
          <mxGeometry x="99" y="758" width="240" height="170" as="geometry" />
        </mxCell>
        <mxCell id="Qi2p6z6g4xfFtqPoYyuL-32" style="edgeStyle=orthogonalEdgeStyle;rounded=0;orthogonalLoop=1;jettySize=auto;html=1;entryX=0;entryY=0.5;entryDx=0;entryDy=0;" edge="1" parent="1" source="Qi2p6z6g4xfFtqPoYyuL-33" target="Qi2p6z6g4xfFtqPoYyuL-34">
          <mxGeometry relative="1" as="geometry" />
        </mxCell>
        <mxCell id="Qi2p6z6g4xfFtqPoYyuL-33" value="sleep" style="rounded=0;whiteSpace=wrap;html=1;" vertex="1" parent="1">
          <mxGeometry x="109" y="793" width="90" height="100" as="geometry" />
        </mxCell>
        <mxCell id="Qi2p6z6g4xfFtqPoYyuL-34" value="sidecar&lt;br&gt;envoy" style="rounded=0;whiteSpace=wrap;html=1;" vertex="1" parent="1">
          <mxGeometry x="259" y="768" width="70" height="150" as="geometry" />
        </mxCell>
        <mxCell id="Qi2p6z6g4xfFtqPoYyuL-35" value="Pod" style="rounded=0;whiteSpace=wrap;html=1;verticalAlign=top;align=left;" vertex="1" parent="1">
          <mxGeometry x="379" y="758" width="140" height="170" as="geometry" />
        </mxCell>
        <mxCell id="Qi2p6z6g4xfFtqPoYyuL-36" style="edgeStyle=orthogonalEdgeStyle;rounded=0;orthogonalLoop=1;jettySize=auto;html=1;entryX=0.16;entryY=0.55;entryDx=0;entryDy=0;entryPerimeter=0;" edge="1" parent="1" source="Qi2p6z6g4xfFtqPoYyuL-37" target="Qi2p6z6g4xfFtqPoYyuL-30">
          <mxGeometry relative="1" as="geometry" />
        </mxCell>
        <mxCell id="Qi2p6z6g4xfFtqPoYyuL-37" value="egressgateway" style="rounded=0;whiteSpace=wrap;html=1;" vertex="1" parent="1">
          <mxGeometry x="389" y="813" width="120" height="60" as="geometry" />
        </mxCell>
        <mxCell id="Qi2p6z6g4xfFtqPoYyuL-38" style="edgeStyle=orthogonalEdgeStyle;rounded=0;orthogonalLoop=1;jettySize=auto;html=1;entryX=0;entryY=0.5;entryDx=0;entryDy=0;" edge="1" parent="1" source="Qi2p6z6g4xfFtqPoYyuL-34" target="Qi2p6z6g4xfFtqPoYyuL-37">
          <mxGeometry relative="1" as="geometry" />
        </mxCell>
        <mxCell id="Qi2p6z6g4xfFtqPoYyuL-40" style="edgeStyle=orthogonalEdgeStyle;curved=1;rounded=0;orthogonalLoop=1;jettySize=auto;html=1;entryX=0.16;entryY=0.55;entryDx=0;entryDy=0;entryPerimeter=0;dashed=1;" edge="1" parent="1" source="Qi2p6z6g4xfFtqPoYyuL-39" target="Qi2p6z6g4xfFtqPoYyuL-30">
          <mxGeometry relative="1" as="geometry" />
        </mxCell>
        <mxCell id="Qi2p6z6g4xfFtqPoYyuL-39" value="ServiceEntry&lt;br&gt;http://www.httpbin.com" style="rounded=0;whiteSpace=wrap;html=1;align=center;" vertex="1" parent="1">
          <mxGeometry x="379" y="958" width="140" height="60" as="geometry" />
        </mxCell>
        <mxCell id="Qi2p6z6g4xfFtqPoYyuL-41" style="edgeStyle=orthogonalEdgeStyle;curved=1;rounded=0;orthogonalLoop=1;jettySize=auto;html=1;entryX=0.5;entryY=0;entryDx=0;entryDy=0;dashed=1;exitX=0.5;exitY=1;exitDx=0;exitDy=0;" edge="1" parent="1" source="Qi2p6z6g4xfFtqPoYyuL-37" target="Qi2p6z6g4xfFtqPoYyuL-39">
          <mxGeometry relative="1" as="geometry" />
        </mxCell>
        <mxCell id="Qi2p6z6g4xfFtqPoYyuL-42" value="k8s" style="rounded=0;whiteSpace=wrap;html=1;align=left;verticalAlign=top;" vertex="1" parent="1">
          <mxGeometry x="69" y="1094" width="470" height="300" as="geometry" />
        </mxCell>
        <mxCell id="Qi2p6z6g4xfFtqPoYyuL-43" value="httpbin" style="ellipse;shape=cloud;whiteSpace=wrap;html=1;" vertex="1" parent="1">
          <mxGeometry x="649" y="1205" width="120" height="80" as="geometry" />
        </mxCell>
        <mxCell id="Qi2p6z6g4xfFtqPoYyuL-44" value="Pod" style="rounded=0;whiteSpace=wrap;html=1;align=left;verticalAlign=top;" vertex="1" parent="1">
          <mxGeometry x="99" y="1164" width="240" height="170" as="geometry" />
        </mxCell>
        <mxCell id="Qi2p6z6g4xfFtqPoYyuL-46" value="sleep" style="rounded=0;whiteSpace=wrap;html=1;" vertex="1" parent="1">
          <mxGeometry x="109" y="1199" width="90" height="100" as="geometry" />
        </mxCell>
        <mxCell id="Qi2p6z6g4xfFtqPoYyuL-47" value="sidecar&lt;br&gt;envoy" style="rounded=0;whiteSpace=wrap;html=1;" vertex="1" parent="1">
          <mxGeometry x="259" y="1174" width="70" height="150" as="geometry" />
        </mxCell>
        <mxCell id="Qi2p6z6g4xfFtqPoYyuL-48" value="Pod" style="rounded=0;whiteSpace=wrap;html=1;verticalAlign=top;align=left;" vertex="1" parent="1">
          <mxGeometry x="379" y="1164" width="140" height="170" as="geometry" />
        </mxCell>
        <mxCell id="Qi2p6z6g4xfFtqPoYyuL-50" value="egressgateway" style="rounded=0;whiteSpace=wrap;html=1;" vertex="1" parent="1">
          <mxGeometry x="389" y="1219" width="120" height="60" as="geometry" />
        </mxCell>
        <mxCell id="Qi2p6z6g4xfFtqPoYyuL-45" style="edgeStyle=orthogonalEdgeStyle;rounded=0;orthogonalLoop=1;jettySize=auto;html=1;entryX=0.16;entryY=0.55;entryDx=0;entryDy=0;entryPerimeter=0;curved=1;" edge="1" parent="1" source="Qi2p6z6g4xfFtqPoYyuL-46" target="Qi2p6z6g4xfFtqPoYyuL-43">
          <mxGeometry relative="1" as="geometry">
            <Array as="points">
              <mxPoint x="154" y="1124" />
              <mxPoint x="668" y="1124" />
            </Array>
          </mxGeometry>
        </mxCell>
        <mxCell id="Qi2p6z6g4xfFtqPoYyuL-52" value="ALLOW_ANY" style="text;html=1;strokeColor=none;fillColor=none;align=center;verticalAlign=middle;whiteSpace=wrap;rounded=0;" vertex="1" parent="1">
          <mxGeometry x="267" y="33" width="60" height="30" as="geometry" />
        </mxCell>
        <mxCell id="Qi2p6z6g4xfFtqPoYyuL-53" value="REGISTRY_ONLY 但无 ServiceEntry" style="text;html=1;strokeColor=none;fillColor=none;align=center;verticalAlign=middle;whiteSpace=wrap;rounded=0;" vertex="1" parent="1">
          <mxGeometry x="196" y="369" width="226" height="30" as="geometry" />
        </mxCell>
        <mxCell id="Qi2p6z6g4xfFtqPoYyuL-59" value="REGISTRY_ONLY 有 ServiceEntry" style="text;html=1;strokeColor=none;fillColor=none;align=center;verticalAlign=middle;whiteSpace=wrap;rounded=0;" vertex="1" parent="1">
          <mxGeometry x="194" y="699" width="226" height="30" as="geometry" />
        </mxCell>
        <mxCell id="Qi2p6z6g4xfFtqPoYyuL-60" value="绕过Envoy代理" style="text;html=1;strokeColor=none;fillColor=none;align=center;verticalAlign=middle;whiteSpace=wrap;rounded=0;" vertex="1" parent="1">
          <mxGeometry x="165" y="1096" width="226" height="30" as="geometry" />
        </mxCell>
      </root>
    </mxGraphModel>
  </diagram>
</mxfile>
